<?xml version="1.0" encoding="utf-8"?>
<!-- Generator: Adobe Illustrator 27.4.0, SVG Export Plug-In . SVG Version: 6.00 Build 0)  -->
<svg version="1.1" id="Layer_1" xmlns="http://www.w3.org/2000/svg" xmlns:xlink="http://www.w3.org/1999/xlink" x="0px" y="0px"
	 viewBox="0 0 1000 1000" style="enable-background:new 0 0 1000 1000;" xml:space="preserve">
<style type="text/css">
	.st0{display:none;}
	.st1{display:inline;}
	.st2{clip-path:url(#SVGID_00000119838767406586947710000005332447152718792633_);}
	.st3{fill:#FFFFFF;}
</style>
<g id="dark-icon" class="st0">
	<g class="st1">
		<defs>
			<path id="SVGID_1_" d="M482.1-13.5L482.1-13.5c276.1,0,500,223.9,500,500l0,0c0,276.1-223.9,500-500,500l0,0
				c-276.1,0-500-223.9-500-500l0,0C-17.9,210.3,205.9-13.5,482.1-13.5z"/>
		</defs>
		<clipPath id="SVGID_00000034811482579351434290000000685797933759396274_">
			<use xlink:href="#SVGID_1_"  style="overflow:visible;"/>
		</clipPath>
		<g style="clip-path:url(#SVGID_00000034811482579351434290000000685797933759396274_);">
			<rect x="-17.9" y="-13.5" class="st3" width="1000" height="1000"/>
			<g transform="matrix(0.7363770250368189,0,0,0.7363770250368189,-5.684341886080802e-14,161.26656848306328)">
				
					<image style="overflow:visible;enable-background:new    ;" width="2287" height="1549" xlink:href="B4C88ABC.png"  transform="matrix(0.5938 0 0 0.5938 -24.354 -18.2691)">
				</image>
			</g>
		</g>
	</g>
</g>
<g id="light-icon">
	<g>
		<g transform="matrix(0.7363770250368189,0,0,0.7363770250368189,-5.684341886080802e-14,132.17967599410895)">
			
				<image style="overflow:visible;enable-background:new    ;" width="7710" height="5670" xlink:href="B4C88ABB.png"  transform="matrix(0.1761 0 0 0.1761 0 0.1576)">
			</image>
		</g>
	</g>
</g>
</svg>
